<mxfile host="app.diagrams.net" modified="2023-04-06T12:14:56.500Z" agent="Mozilla/5.0 (Windows NT 10.0; Win64; x64; rv:109.0) Gecko/20100101 Firefox/111.0" version="21.1.4" etag="WfhwWYuCLGyG8vfDtqHR" type="github">
  <diagram name="PÃ¡gina-1" id="DtxFN5trB-RNn4_jLacw">
    <mxGraphModel>
      <root>
        <mxCell id="0" />
        <mxCell id="1" parent="0" />
      </root>
    </mxGraphModel>
  </diagram>
</mxfile>
